<?xml version="1.0" encoding="UTF-8"?>
<svg width="700pt" height="700pt" version="1.1" viewBox="0 0 700 700" xmlns="http://www.w3.org/2000/svg">
 <g fill-rule="evenodd">
  <path d="m221.67 105c-51.547 0-93.336 41.785-93.336 93.332s41.789 93.336 93.336 93.336 93.332-41.789 93.332-93.336-41.785-93.332-93.332-93.332zm-116.67 93.332c0-64.434 52.234-116.66 116.67-116.66 64.434 0 116.66 52.23 116.66 116.66 0 64.434-52.23 116.67-116.66 116.67-64.434 0-116.67-52.234-116.67-116.67z"/>
  <path d="m478.33 105c-51.543 0-93.332 41.785-93.332 93.332s41.789 93.336 93.332 93.336c51.547 0 93.336-41.789 93.336-93.336s-41.789-93.332-93.336-93.332zm-116.66 93.332c0-64.434 52.234-116.66 116.66-116.66 64.434 0 116.67 52.23 116.67 116.66 0 64.434-52.234 116.67-116.67 116.67-64.43 0-116.66-52.234-116.66-116.67z"/>
  <path d="m175 361.67v-70h-23.332v81.664c0 6.4453 5.2227 11.668 11.664 11.668h116.67c6.4414 0 11.668-5.2227 11.668-11.668v-81.664h-23.336v70z"/>
  <path d="m431.67 361.67v-70h-23.336v81.664c0 6.4453 5.2266 11.668 11.668 11.668h116.67c6.4414 0 11.664-5.2227 11.664-11.668v-81.664h-23.332v70z"/>
  <path d="m210 385v-11.668h23.332v11.668c0 38.66 31.34 70 70 70h93.336c38.66 0 70-31.34 70-70v-11.668h23.332v11.668c0 51.547-41.789 93.332-93.332 93.332h-93.336c-51.547 0-93.332-41.785-93.332-93.332z"/>
 </g>
</svg>
