<?xml version="1.0" encoding="UTF-8"?>
<svg width="700pt" height="700pt" version="1.1" viewBox="0 0 700 700" xmlns="http://www.w3.org/2000/svg">
 <g>
  <path d="m350 4.668c-151.67 0-275.33 123.66-275.33 275.33s123.66 275.33 275.33 275.33 275.33-123.66 275.33-275.33-123.66-275.33-275.33-275.33zm0 527.33c-140 0-252-112-252-252s112-252 252-252 252 112 252 252-112 252-252 252z"/>
  <path d="m457.33 128.33h35c7 0 11.668-4.668 11.668-11.668s-4.668-11.668-11.668-11.668l-284.66 0.003906c-7 0-11.668 4.668-11.668 11.668s4.668 11.668 11.668 11.668h35c2.332 70 28 128.33 67.668 151.67-37.332 23.332-63 74.668-67.668 140v11.668l-35-0.003906c-7 0-11.668 4.668-11.668 11.668s4.668 11.668 11.668 11.668h287c7 0 11.668-4.668 11.668-11.668s-4.668-11.668-11.668-11.668h-35v-11.668c-4.668-65.332-30.332-119-67.668-140 35-23.332 63-81.668 65.332-151.67zm-23.332 0c0 9.332 0 16.332-2.332 23.332l-81.668 51.336-81.668-51.332c0-7-2.332-16.332-2.332-23.332zm-165.67 280 81.668-49 81.668 49v2.332zm156.34-30.332-70-42c-4.668-2.332-9.332-2.332-11.668 0l-70 42c14-49 42-86.332 74.668-86.332 35 0 63 35 77 86.332zm-74.668-109.67c-32.668 0-60.668-35-74.668-86.332l70 42c2.332 0 4.668 2.332 7 2.332s4.668 0 7-2.332l70-42c-18.664 51.332-46.664 86.332-79.332 86.332z"/>
 </g>
</svg>
