<?xml version="1.0" encoding="UTF-8"?>
<svg width="700pt" height="700pt" version="1.1" viewBox="0 0 700 700" xmlns="http://www.w3.org/2000/svg">
 <g fill-rule="evenodd">
  <path d="m291.67 58.332c-90.207 0-163.34 73.129-163.34 163.34s73.129 163.33 163.34 163.33 163.33-73.125 163.33-163.33-73.125-163.34-163.33-163.34zm-186.67 163.34c0-103.09 83.574-186.67 186.67-186.67s186.66 83.574 186.66 186.67-83.57 186.66-186.66 186.66-186.67-83.57-186.67-186.66z"/>
  <path d="m428.25 341.75 140 140-16.5 16.5-140-140z"/>
  <path d="m291.67 128.33c-19.332 0-35 15.672-35 35v11.668h-23.336v-11.668c0-32.215 26.117-58.332 58.336-58.332 32.215 0 58.332 26.117 58.332 58.332v1.7031c0 17.676-9.9883 33.836-25.797 41.738l-20.871 10.438v39.457h-23.332v-46.668c0-4.418 2.4961-8.457 6.4492-10.434l27.32-13.66c7.9023-3.9531 12.898-12.031 12.898-20.871v-1.7031c0-19.328-15.672-35-35-35z"/>
  <path d="m280 340.52v-25.523h23.332v25.523z"/>
 </g>
</svg>
